<svg class="inside" width="1266.000000pt" height="1266.000000pt" viewBox="0 0 1266.000000 1266.000000">
<g transform="translate(0.000000,1266.000000) scale(0.100000,-0.100000)"
fill="#000000" stroke="none">
<path d="M5190 10915 c0 -12 69 -164 97 -214 55 -101 185 -224 305 -289 54
-29 122 -76 152 -103 l54 -49 53 24 c30 14 46 25 37 25 -9 1 -54 20 -100 43
-182 93 -308 277 -308 451 l0 33 -145 40 c-80 23 -145 40 -145 39z"/>
<path d="M6946 10856 l-99 -22 -4 -54 c-6 -79 -20 -127 -60 -200 l-35 -65 34
30 c136 121 253 248 287 313 15 28 11 28 -123 -2z"/>
<path d="M6433 10308 c-147 -51 -324 -60 -460 -25 -58 16 -59 16 2 -58 22 -27
64 -99 94 -158 l54 -109 103 110 c57 60 146 144 199 187 52 43 95 79 95 81 0
2 -1 3 -2 3 -2 -1 -40 -15 -85 -31z"/>
</g>
</svg>
