<svg class="lapel" width="1266.000000pt" height="1266.000000pt" viewBox="0 0 1266.000000 1266.000000">
<g transform="translate(0.000000,1266.000000) scale(0.100000,-0.100000)"
fill="#000000" stroke="none">
<path d="M5105 11321 c-17 -10 -42 -32 -57 -49 -32 -38 -194 -309 -221 -371
-65 -146 18 -385 258 -746 117 -176 180 -255 203 -255 22 0 39 12 196 138 109
88 208 159 291 208 17 9 14 14 -26 51 -24 23 -69 56 -99 74 -196 114 -286 193
-360 317 -40 69 -106 219 -99 227 3 2 43 -7 89 -21 470 -136 1107 -147 1688
-29 64 13 118 22 120 21 1 -2 -16 -32 -39 -67 -60 -91 -226 -252 -426 -412
-95 -77 -173 -141 -173 -144 0 -4 25 -39 55 -79 47 -63 60 -74 107 -89 73 -24
172 -77 243 -130 33 -25 64 -45 70 -45 27 1 258 334 364 525 120 216 149 319
133 481 -9 91 -16 119 -46 178 -40 81 -145 202 -192 222 -36 15 -43 14 -345
-41 -102 -19 -252 -41 -332 -50 -251 -26 -844 -17 -1032 16 -33 6 -107 26
-165 44 -145 46 -169 49 -205 26z"/>
</g>
</svg>
