<svg class="arms" width="1266.000000pt" height="1266.000000pt" viewBox="0 0 1266.000000 1266.000000">
<g transform="translate(0.000000,1266.000000) scale(0.100000,-0.100000)"
fill="#000000" stroke="none">
<path d="M3179 10031 c-130 -86 -255 -207 -337 -328 -52 -77 -158 -290 -215
-433 -76 -189 -85 -245 -91 -555 -6 -330 -16 -418 -66 -610 -72 -278 -240
-788 -275 -838 -35 -50 -4 -113 80 -163 94 -55 396 -166 565 -209 52 -13 167
-38 255 -55 88 -17 213 -47 277 -66 65 -19 127 -34 138 -34 35 0 56 35 95 156
36 117 73 198 160 356 50 90 51 97 30 247 -43 292 -150 740 -285 1186 -210
697 -301 1165 -259 1344 5 24 8 45 6 47 -2 2 -37 -18 -78 -45z"/>
<path d="M9128 9943 c9 -224 -77 -633 -263 -1248 -158 -524 -264 -977 -296
-1271 l-12 -109 76 -145 c48 -91 91 -192 116 -269 42 -130 61 -161 95 -161 12
0 66 14 121 30 55 17 190 48 300 70 242 49 374 85 562 156 225 84 320 138 343
193 10 25 8 37 -18 92 -84 183 -286 846 -312 1026 -7 43 -16 218 -20 388 -8
332 -11 352 -70 520 -45 126 -179 402 -244 499 -67 100 -191 224 -294 293 -42
29 -80 53 -83 53 -3 0 -4 -53 -1 -117z"/>
</g>
</svg>
