<svg class="body" width="1266.000000pt" height="1266.000000pt" viewBox="0 0 1266.000000 1266.000000">
<g transform="translate(0.000000,1266.000000) scale(0.100000,-0.100000)"
fill="#000000" stroke="none">
<path d="M7413 11016 c3 -7 8 -54 12 -104 10 -122 -10 -205 -83 -357 -88 -180
-275 -471 -389 -603 l-28 -33 -72 55 c-77 58 -146 94 -234 121 -51 16 -61 24
-110 91 -30 41 -57 74 -61 74 -14 0 -184 -148 -256 -223 l-72 -75 -50 101
c-52 103 -81 148 -133 204 l-30 32 -46 -19 c-119 -46 -203 -98 -344 -208 -184
-143 -211 -162 -230 -162 -30 0 -227 277 -345 486 -70 124 -132 308 -131 394
0 36 6 83 14 105 8 21 13 41 11 43 -2 1 -57 -39 -122 -91 -66 -52 -162 -119
-214 -149 -338 -194 -899 -479 -1115 -566 l-120 -48 -13 -55 c-40 -169 51
-648 248 -1304 180 -598 280 -1041 310 -1375 6 -69 18 -174 26 -235 32 -252
69 -861 58 -960 -2 -22 -11 -357 -19 -745 -29 -1367 -38 -1510 -135 -2285 -66
-524 -67 -539 -85 -860 -15 -279 -48 -614 -66 -690 -6 -22 -13 -50 -16 -62 -7
-31 20 -69 67 -93 82 -42 154 -52 411 -57 266 -6 364 1 674 45 178 25 213 26
555 27 201 0 538 -6 750 -13 321 -11 415 -11 565 0 102 7 326 13 515 12 324 0
342 -1 565 -33 202 -29 263 -34 500 -38 313 -6 441 7 535 55 72 36 87 65 66
130 -20 62 -53 359 -66 597 -19 342 -39 554 -95 995 -95 765 -101 871 -137
2350 -21 863 -16 1089 33 1524 11 98 26 212 35 255 8 42 21 128 29 191 44 335
138 728 308 1295 129 431 226 849 245 1055 11 119 0 237 -25 261 -10 10 -56
32 -103 50 -200 76 -615 283 -1045 522 -198 110 -233 134 -413 284 -67 57
-125 103 -128 103 -4 0 -4 -6 -1 -14z"/>
</g>
</svg>
