<svg class="button" width="1266.000000pt" height="1266.000000pt" viewBox="0 0 1266.000000 1266.000000">
<g transform="translate(0.000000,1266.000000) scale(0.100000,-0.100000)"
fill="#000000" stroke="none">
<path d="M5866 10082 c-3 -6 -1 -14 5 -17 15 -10 25 3 12 16 -7 7 -13 7 -17 1z"/>
<path d="M5836 10061 c-4 -5 -2 -12 3 -15 5 -4 12 -2 15 3 4 5 2 12 -3 15 -5
4 -12 2 -15 -3z"/>
<path d="M5880 10040 c0 -5 -7 -10 -15 -10 -8 0 -15 -4 -15 -10 0 -5 7 -10 15
-10 8 0 15 5 15 10 0 6 7 10 15 10 8 0 15 5 15 10 0 6 -7 10 -15 10 -8 0 -15
-4 -15 -10z"/>
<path d="M6120 9230 c0 -5 5 -10 10 -10 6 0 10 5 10 10 0 6 -4 10 -10 10 -5 0
-10 -4 -10 -10z"/>
<path d="M6090 9216 c0 -9 5 -16 10 -16 6 0 10 4 10 9 0 6 -4 13 -10 16 -5 3
-10 -1 -10 -9z"/>
<path d="M6136 9202 c-3 -6 -1 -14 5 -17 15 -10 25 3 12 16 -7 7 -13 7 -17 1z"/>
<path d="M6100 9180 c0 -5 5 -10 10 -10 6 0 10 5 10 10 0 6 -4 10 -10 10 -5 0
-10 -4 -10 -10z"/>
</g>
</svg>
