<svg class="placket" width="1266.000000pt" height="1266.000000pt" viewBox="0 0 1266.000000 1266.000000">
<g transform="translate(0.000000,1266.000000) scale(0.100000,-0.100000)"
fill="#000000" stroke="none">
<path d="M5814 10256 c-74 -35 -204 -116 -204 -127 0 -3 22 -39 48 -80 107
-163 209 -364 250 -489 19 -58 22 -104 31 -420 6 -195 14 -417 17 -493 l6
-137 172 2 171 3 3 622 2 622 96 85 c53 47 123 105 155 128 32 24 59 46 59 51
0 4 -39 59 -86 122 -59 79 -90 112 -99 107 -35 -19 -192 -162 -247 -224 l-61
-69 -51 103 c-60 123 -139 228 -170 228 -12 0 -53 -15 -92 -34z"/>
</g>
</svg>
